<?xml version="1.0" encoding="UTF-8"?>
<!DOCTYPE svg PUBLIC "-//W3C//DTD SVG 1.1//EN" "http://www.w3.org/Graphics/SVG/1.1/DTD/svg11.dtd">
<!-- Creator: CorelDRAW -->
<svg xmlns="http://www.w3.org/2000/svg" xml:space="preserve" width="570mm" height="300mm" version="1.1" style="shape-rendering:geometricPrecision; text-rendering:geometricPrecision; image-rendering:optimizeQuality; fill-rule:evenodd; clip-rule:evenodd"
viewBox="0 0 57000 30000"
 xmlns:xlink="http://www.w3.org/1999/xlink"
 xmlns:xodm="http://www.corel.com/coreldraw/odm/2003">
 <defs>
  <style type="text/css">
   <![CDATA[
    .str0 {stroke:#ED3237;stroke-width:17.64;stroke-miterlimit:22.9256}
    .fil0 {fill:none}
   ]]>
  </style>
 </defs>
 <g id="Layer_x0020_1">
  <metadata id="CorelCorpID_0Corel-Layer"/>
  <image x="273.34" y="211.67" width="56438.78" height="29582.52" xlink:href="peta_comipara_Images\peta_comipara_ImgID1.png"/>
  <rect id="C-24" class="fil0 str0" x="8362.28" y="8027.84" width="405.67" height="409.12"/>
  <rect id="C-23" class="fil0 str0" x="8359.49" y="7494.06" width="405.67" height="409.12"/>
  <rect id="C-22" class="fil0 str0" x="8359.49" y="7084.94" width="405.67" height="409.12"/>
  <rect id="C-21" class="fil0 str0" x="8359.49" y="6568.28" width="405.67" height="409.12"/>
  <rect id="C-20" class="fil0 str0" x="8359.49" y="6159.16" width="405.67" height="409.12"/>
  <rect id="C-19" class="fil0 str0" x="8359.49" y="5644.98" width="405.67" height="409.12"/>
  <rect id="C-18" class="fil0 str0" x="8359.49" y="5235.86" width="405.67" height="409.12"/>
  <rect id="C-17" class="fil0 str0" x="8362.28" y="4710.66" width="405.67" height="409.12"/>
  <rect id="C-16" class="fil0 str0" x="7875.4" y="4710.66" width="405.67" height="409.12"/>
  <rect id="C-15" class="fil0 str0" x="7875.4" y="5235.86" width="405.67" height="409.12"/>
  <rect id="C-14" class="fil0 str0" x="7875.4" y="5644.98" width="405.67" height="409.12"/>
  <rect id="C-13" class="fil0 str0" x="7875.4" y="6159.16" width="405.67" height="409.12"/>
  <rect id="C-12" class="fil0 str0" x="7875.4" y="6568.28" width="405.67" height="409.12"/>
  <rect id="C-11" class="fil0 str0" x="7875.4" y="7084.94" width="405.67" height="409.12"/>
  <rect id="C-10" class="fil0 str0" x="7875.4" y="7494.06" width="405.67" height="409.12"/>
  <rect id="C-09" class="fil0 str0" x="7875.4" y="8027.84" width="405.67" height="409.12"/>
  <rect id="B-24" class="fil0 str0" x="6717.31" y="8027.84" width="405.67" height="409.12"/>
  <rect id="B-23" class="fil0 str0" x="6714.51" y="7494.06" width="405.67" height="409.12"/>
  <rect id="B-22" class="fil0 str0" x="6714.51" y="7084.94" width="405.67" height="409.12"/>
  <rect id="B-21" class="fil0 str0" x="6714.51" y="6568.28" width="405.67" height="409.12"/>
  <rect id="B-20" class="fil0 str0" x="6714.51" y="6159.16" width="405.67" height="409.12"/>
  <rect id="B-19" class="fil0 str0" x="6714.51" y="5644.98" width="405.67" height="409.12"/>
  <rect id="B-18" class="fil0 str0" x="6714.51" y="5235.86" width="405.67" height="409.12"/>
  <rect id="B-17" class="fil0 str0" x="6717.31" y="4710.66" width="405.67" height="409.12"/>
  <rect id="B-16" class="fil0 str0" x="6230.42" y="4710.66" width="405.67" height="409.12"/>
  <rect id="B-15" class="fil0 str0" x="6230.42" y="5235.86" width="405.67" height="409.12"/>
  <rect id="B-14" class="fil0 str0" x="6230.42" y="5644.98" width="405.67" height="409.12"/>
  <rect id="B-13" class="fil0 str0" x="6230.42" y="6159.16" width="405.67" height="409.12"/>
  <rect id="B-12" class="fil0 str0" x="6230.42" y="6568.28" width="405.67" height="409.12"/>
  <rect id="B-11" class="fil0 str0" x="6230.42" y="7084.94" width="405.67" height="409.12"/>
  <rect id="B-10" class="fil0 str0" x="6230.42" y="7494.06" width="405.67" height="409.12"/>
  <rect id="B-09" class="fil0 str0" x="6230.42" y="8027.84" width="405.67" height="409.12"/>
  <rect id="A-24" class="fil0 str0" x="5100.38" y="8027.84" width="405.67" height="409.12"/>
  <rect id="A-23" class="fil0 str0" x="5097.58" y="7494.06" width="405.67" height="409.12"/>
  <rect id="A-22" class="fil0 str0" x="5097.58" y="7084.94" width="405.67" height="409.12"/>
  <rect id="A-21" class="fil0 str0" x="5097.58" y="6568.28" width="405.67" height="409.12"/>
  <rect id="A-20" class="fil0 str0" x="5097.58" y="6159.16" width="405.67" height="409.12"/>
  <rect id="A-19" class="fil0 str0" x="5097.58" y="5644.98" width="405.67" height="409.12"/>
  <rect id="A-18" class="fil0 str0" x="5097.58" y="5235.86" width="405.67" height="409.12"/>
  <rect id="A-17" class="fil0 str0" x="5100.38" y="4710.66" width="405.67" height="409.12"/>
  <rect id="A-16" class="fil0 str0" x="4613.49" y="4710.66" width="405.67" height="409.12"/>
  <rect id="A-15" class="fil0 str0" x="4613.49" y="5235.86" width="405.67" height="409.12"/>
  <rect id="A-14" class="fil0 str0" x="4613.49" y="5644.98" width="405.67" height="409.12"/>
  <rect id="A-13" class="fil0 str0" x="4613.49" y="6159.16" width="405.67" height="409.12"/>
  <rect id="A-12" class="fil0 str0" x="4613.49" y="6568.28" width="405.67" height="409.12"/>
  <rect id="A-11" class="fil0 str0" x="4613.49" y="7084.94" width="405.67" height="409.12"/>
  <rect id="A-10" class="fil0 str0" x="4613.49" y="7494.06" width="405.67" height="409.12"/>
  <rect id="A-09" class="fil0 str0" x="4613.49" y="8027.84" width="405.67" height="409.12"/>
 </g>
</svg>
