<?xml version="1.0" encoding="UTF-8"?>
<!DOCTYPE svg PUBLIC "-//W3C//DTD SVG 1.1//EN" "http://www.w3.org/Graphics/SVG/1.1/DTD/svg11.dtd">
<!-- Creator: CorelDRAW -->
<svg xmlns="http://www.w3.org/2000/svg" xml:space="preserve" width="148mm" height="210mm" version="1.1" style="shape-rendering:geometricPrecision; text-rendering:geometricPrecision; image-rendering:optimizeQuality; fill-rule:evenodd; clip-rule:evenodd"
viewBox="0 0 14800 21000"
 xmlns:xlink="http://www.w3.org/1999/xlink"
 xmlns:xodm="http://www.corel.com/coreldraw/odm/2003">
 <defs>
  <style type="text/css">
   <![CDATA[
    .str0 {stroke:#373435;stroke-width:17.64;stroke-miterlimit:22.9256}
    .fil0 {fill:none}
   ]]>
  </style>
 </defs>
 <g id="Layer_x0020_1">
  <metadata id="CorelCorpID_0Corel-Layer"/>
  <image x="-27186.77" y="-9940.26" width="67724.86" height="38095.22" xlink:href="peta_arknights_Images\peta_arknights_ImgID1.png"/>
  <rect id="Mostima" class="fil0 str0" x="-25319.66" y="3951.81" width="6567.31" height="6567.31"/>
  <rect id="Fiammetta" class="fil0 str0" x="-27069.79" y="10471.17" width="6567.31" height="6567.31"/>
  <rect id="Blemishine" class="fil0 str0" x="-16171.39" y="6716.77" width="6567.31" height="6567.31"/>
  <rect id="Mlynar" class="fil0 str0" x="-11972.74" y="2040.24" width="6567.31" height="6567.31"/>
  <rect id="Nearl" class="fil0 str0" x="-5521.17" y="2313.31" width="6567.31" height="6567.31"/>
  <rect id="Whislash" class="fil0 str0" x="-7876.51" y="8594.22" width="6567.31" height="6567.31"/>
  <rect id="Kaltsit" class="fil0 str0" x="-161.91" y="6955.72" width="6567.31" height="6567.31"/>
  <rect id="Goldenglow" class="fil0 str0" x="1408.31" y="265.19" width="6567.31" height="6567.31"/>
  <rect id="Mizuki" class="fil0 str0" x="7551.38" y="-1134.85" width="6567.31" height="6567.31"/>
  <rect id="Amiya" class="fil0 str0" x="6699.27" y="6955.73" width="6567.31" height="6567.31"/>
  <rect id="Ch_x0027_en" class="fil0 str0" x="14118.61" y="6955.73" width="6567.31" height="6567.31"/>
  <rect id="Hoshiguma" class="fil0 str0" x="12312.85" y="1145.88" width="6567.31" height="6567.31"/>
  <rect id="Swire" class="fil0 str0" x="22244.56" y="7034.24" width="6567.31" height="6567.31"/>
  <rect id="Lin" class="fil0 str0" x="18956.53" y="1736.82" width="6567.31" height="6567.31"/>
  <rect id="Doctah" class="fil0 str0" x="17387.78" y="-8760.37" width="6567.31" height="6567.31"/>
  <rect id="Lappland" class="fil0 str0" x="33774.01" y="10181.83" width="6567.31" height="6567.31"/>
  <rect id="Texas" class="fil0 str0" x="30010.58" y="16155.14" width="6567.31" height="6567.31"/>
  <rect id="Specter" class="fil0 str0" x="21908.85" y="19313.43" width="6567.31" height="6567.31"/>
  <rect id="Gladia" class="fil0 str0" x="14905.67" y="17734.28" width="6567.31" height="6567.31"/>
  <rect id="Skadi" class="fil0 str0" x="8314.45" y="19656.72" width="6567.31" height="6567.31"/>
  <rect id="Tomimi" class="fil0 str0" x="-542.52" y="17871.6" width="6567.31" height="6567.31"/>
  <rect id="Gavial" class="fil0 str0" x="-7957.65" y="18008.92" width="6567.31" height="6567.31"/>
  <rect id="Nian" class="fil0 str0" x="-16951.92" y="17185.01" width="6567.31" height="6567.31"/>
  <rect id="Ling" class="fil0 str0" x="-25534.25" y="20686.6" width="6567.31" height="6567.31"/>
  <rect id="Dusk" class="fil0 str0" x="-22993.89" y="14438.67" width="6567.31" height="6567.31"/>
 </g>
</svg>
